<svg xmlns="http://www.w3.org/2000/svg" xmlns:xlink="http://www.w3.org/1999/xlink"><defs><symbol fill="none" viewBox="0 0 20 20" id="advanced"><rect x=".5" y=".5" width="19" height="19" rx="9.5" stroke="#fff" /><g clip-path="url(#advanced_clip0)" fill="#fff"><path d="M14.707 7.028H11.3a.738.738 0 00-.156-.23l-.538-.539a.736.736 0 00-.525-.217.737.737 0 00-.524.217l-.538.538a.737.737 0 00-.156.231h-3.57a.293.293 0 000 .587h3.57a.737.737 0 00.156.23l.538.539c.14.14.326.217.524.217a.736.736 0 00.524-.217l.539-.538a.736.736 0 00.156-.231h3.406a.293.293 0 000-.587zM14.707 9.746h-5.72a.74.74 0 00-.158-.231l-.538-.538a.736.736 0 00-.524-.217.736.736 0 00-.524.217l-.538.538a.737.737 0 00-.157.23H5.293a.293.293 0 000 .587h1.255a.737.737 0 00.157.231l.538.538a.736.736 0 001.048 0l.538-.538a.74.74 0 00.157-.23h5.72a.293.293 0 000-.587zM14.707 12.385h-1.45a.736.736 0 00-.157-.23l-.538-.539a.736.736 0 00-.525-.217.736.736 0 00-.524.217l-.538.538a.735.735 0 00-.156.231H5.293a.293.293 0 000 .587h5.526a.736.736 0 00.156.23l.538.539c.14.14.326.217.524.217a.737.737 0 00.525-.217l.538-.538a.736.736 0 00.156-.231h1.45a.293.293 0 100-.587z" /></g><defs></defs></symbol><clipPath id="advanced_clip0"><path fill="#fff" transform="translate(5 5)" d="M0 0h10v10H0z" /></clipPath><symbol fill="none" viewBox="0 0 20 27" id="advant1"><path fill-rule="evenodd" clip-rule="evenodd" d="M2.047.524c-.882 0-1.597.717-1.597 1.6v22.752c0 .883.715 1.6 1.597 1.6h.887c.882 0 1.597-.717 1.597-1.6V2.125c0-.884-.715-1.6-1.597-1.6h-.887zm15.017 6.451c-.883 0-1.598.717-1.598 1.6v16.3c0 .884.716 1.6 1.598 1.6h.888a1.6 1.6 0 001.597-1.6v-16.3a1.6 1.6 0 00-1.597-1.6h-.888zm-7.517 4.882c-.883 0-1.596.717-1.596 1.6v11.419c0 .883.713 1.6 1.596 1.6h.888c.882 0 1.597-.717 1.597-1.6V13.457c0-.883-.715-1.6-1.597-1.6h-.888z" fill="#8F00EB" /></symbol><symbol fill="none" viewBox="0 0 27 27" id="advant2"><path fill-rule="evenodd" clip-rule="evenodd" d="M13.05.236c-.9 0-1.63.732-1.63 1.636v23.256c0 .904.73 1.636 1.63 1.636h.903c.9 0 1.63-.732 1.63-1.636V1.872c0-.904-.73-1.636-1.63-1.636h-.904z" fill="#03D370" /><path fill-rule="evenodd" clip-rule="evenodd" d="M26.764 13.048c0-.9-.732-1.63-1.636-1.63H1.872c-.904 0-1.636.73-1.636 1.63v.904c0 .9.732 1.63 1.636 1.63h23.256c.904 0 1.636-.73 1.636-1.63v-.904z" fill="#03D370" /></symbol><symbol fill="none" viewBox="0 0 27 31" id="advant3"><path d="M8.271 20.499l-1.57.214a5.46 5.46 0 01-.949-1.905l2.012-.274c.125.674.295 1.34.507 1.965zm3.31 2.328l.104-.01c.345-.082.705-.654.931-1.484l-2.3.313c.446.753.913 1.17 1.264 1.18zm-3.54-.871c.364.24.76.437 1.175.585a7.841 7.841 0 01-.388-.692l-.788.107zm-.214-8.835c.022-.08.045-.16.069-.237a5.483 5.483 0 00-1.07.987l.862-.117c.04-.219.086-.43.14-.633zm2.396-1.164l-.018.001-.084.014c-.346.093-.706.675-.928 1.512-.006.022-.01.045-.015.067l2.375-.324c-.467-.82-.964-1.27-1.33-1.27zm2.43 4.485a12.318 12.318 0 00-.496-1.871l-3.204.436a12.39 12.39 0 00.022 1.936l3.679-.501zm-5.127-1.24l-1.607.218a5.425 5.425 0 00-.358 1.988l2.011-.274a14.182 14.182 0 01-.046-1.933zM26.54 5.153l-2.648 18.56a2.927 2.927 0 01-2.258 2.43 2.734 2.734 0 01-.542 1.979 2.736 2.736 0 01-1.82 1.062l-13.14 1.79a2.764 2.764 0 01-3.101-2.358L.457 9.724c-.1-.73.091-1.453.536-2.04a2.736 2.736 0 011.822-1.062L7.46 5.99l.497-3.487A2.927 2.927 0 0111.254.03l12.812 1.828c.77.11 1.452.513 1.92 1.135.466.623.663 1.39.553 2.16zm-8.665 11.29c-.463-3.4-3.397-5.965-6.824-5.965a6.97 6.97 0 00-.938.064c-.026.003-.052.008-.077.012-.019.002-.038.003-.056.006-.042.005-.083.015-.125.023a6.844 6.844 0 00-4.3 2.617 6.849 6.849 0 00-1.343 5.104 6.862 6.862 0 001.61 3.56c.035.053.077.1.125.142a6.886 6.886 0 005.088 2.263 6.937 6.937 0 00.806-.046l.033-.006.1-.012a6.85 6.85 0 004.558-2.659 6.849 6.849 0 001.343-5.103zM24.855 3.84a1.49 1.49 0 00-.989-.585L11.055 1.428a1.507 1.507 0 00-1.698 1.274l-.442 3.09 3.432-.468 3.607-.491a2.763 2.763 0 013.101 2.358l.021.157 2.369 17.389a1.507 1.507 0 001.047-1.221l2.649-18.562a1.493 1.493 0 00-.286-1.113zM14.287 19.68l1.838-.25c.269-.66.404-1.368.398-2.089l-2.277.31c.063.7.076 1.383.041 2.03zm-5.123-1.336c.137.733.32 1.391.53 1.962l3.166-.431c.051-.634.045-1.322-.017-2.032l-3.679.5zm4.827 3.32c-.038.144-.08.28-.125.412.483-.29.92-.656 1.3-1.09l-1.053.144a8.28 8.28 0 01-.122.534zm-1.488-9.573c.19.284.369.598.532.935l1.126-.153a5.485 5.485 0 00-1.658-.782zm3.83 3.85a5.457 5.457 0 00-.883-1.818l-1.872.255c.197.599.357 1.232.476 1.874l2.278-.31z" fill="#F4317E" /></symbol><symbol fill="none" viewBox="0 0 28 12" id="advant4"><path fill-rule="evenodd" clip-rule="evenodd" d="M.528.483C.398.483.292.61.292.767v4.949c0 .157.106.284.236.284h5.247V.767c0-.157-.105-.284-.235-.284H.528zM5.775 6V11.233c0 .157.104.284.234.284h5.013c.13 0 .236-.127.236-.284V6H5.775zm5.483 0h5.483V.768c0-.158-.106-.285-.236-.285h-5.013c-.13 0-.234.127-.234.284V6zm5.483 0V11.233c0 .157.104.284.234.284h5.013c.13 0 .236-.127.236-.284V6h-5.483zm5.483 0h5.247c.13 0 .236-.127.236-.284V.767c0-.157-.106-.284-.236-.284H22.46c-.13 0-.235.127-.235.284V6z" fill="#FD7330" /></symbol><symbol fill="none" viewBox="0 0 14 8" id="arrow-bottom-sm"><path d="M7 7.5l-7-7h3.5L7 4 10.5.5H14l-7 7z" fill="#FD7330" /></symbol><symbol fill="none" viewBox="0 0 26 25" id="arrow-bottom-sm2"><rect width="26" height="25" rx="8" fill="#FFEFE7" /><path d="M13 16.5l-7-7h3.5L13 13l3.5-3.5H20l-7 7z" fill="#FD7330" /></symbol><symbol fill="none" viewBox="0 0 44 44" id="callback"><path d="M44 12.571c0 5.975 0 8.962-.508 11.444a25 25 0 01-19.477 19.477C21.533 44 18.545 44 12.57 44c-2.39 0-3.584 0-4.577-.203a10 10 0 01-7.79-7.791C0 35.013 0 33.818 0 31.429c0-5.975 0-8.962.508-11.444A25 25 0 0119.985.508C22.467 0 25.455 0 31.43 0c2.39 0 3.584 0 4.577.203a10 10 0 017.79 7.791c.204.993.204 2.188.204 4.577z" fill="#fff" /><g clip-path="url(#callback_clip0)"><path d="M30.984 24.82c-1.256 0-2.487-.197-3.654-.582-.569-.196-1.215-.045-1.59.337l-2.312 1.747c-2.654-1.417-4.352-3.114-5.749-5.748l1.7-2.258a1.623 1.623 0 00.397-1.64 11.642 11.642 0 01-.585-3.66 1.61 1.61 0 00-1.608-1.609H13.83a1.61 1.61 0 00-1.608 1.608c0 10.345 8.417 18.763 18.762 18.763a1.61 1.61 0 001.608-1.609v-3.741a1.61 1.61 0 00-1.608-1.608z" fill="#8F00EB" /></g><defs></defs></symbol><clipPath id="callback_clip0"><path fill="#fff" transform="translate(12.222 11.407)" d="M0 0h20.37v20.37H0z" /></clipPath><symbol fill="none" viewBox="0 0 12 16" id="cb-input"><path d="M9.5 0h-7A1.835 1.835 0 00.667 1.833v12.334C.667 15.178 1.488 16 2.5 16h7a1.835 1.835 0 001.833-1.833V1.833A1.835 1.835 0 009.5 0zm.5 14a.667.667 0 01-.667.667H2.666A.667.667 0 012 14V2c0-.368.299-.667.667-.667H3c.368 0 .667.299.667.667 0 .368.298.667.666.667h3.333A.667.667 0 008.334 2c0-.368.299-.667.667-.667h.333c.368 0 .667.299.667.667v12z" fill="#BDBBC7" /></symbol><symbol fill="none" viewBox="0 0 16 16" id="cb-name"><path d="M14.019 10.313c-.79-.833-1.74-1.439-2.739-1.769a4.892 4.892 0 001.623-3.64C12.903 2.2 10.703 0 8 0a4.909 4.909 0 00-4.903 4.903c0 1.444.627 2.743 1.623 3.641-1 .33-1.949.936-2.739 1.768A7.123 7.123 0 000 15.226V16h16v-.774a7.123 7.123 0 00-1.981-4.914zm-9.374-5.41A3.359 3.359 0 018 1.548a3.359 3.359 0 013.355 3.355A3.359 3.359 0 018 8.258a3.359 3.359 0 01-3.355-3.355zm-3.042 9.549c.384-2.706 2.731-4.646 4.849-4.646h3.096c2.118 0 4.465 1.94 4.85 4.646H1.602z" fill="#BDBBC7" /></symbol><symbol viewBox="0 0 21 21" id="choose-hotels"><path d="M10.5 7.219a.656.656 0 00.656-.657v-.656a.656.656 0 10-1.312 0v.657c0 .362.293.656.656.656zM7.875 7.219a.656.656 0 00.656-.657v-.656a.656.656 0 00-1.312 0v.657c0 .362.294.656.656.656zM13.125 7.219a.656.656 0 00.656-.657v-.656a.656.656 0 10-1.312 0v.657c0 .362.293.656.656.656zM10.5 10.5a.656.656 0 00.656-.656v-.656a.656.656 0 10-1.312 0v.656c0 .362.293.656.656.656zM7.875 10.5a.656.656 0 00.656-.656v-.656a.656.656 0 00-1.312 0v.656c0 .362.294.656.656.656zM13.125 10.5a.656.656 0 00.656-.656v-.656a.656.656 0 10-1.312 0v.656c0 .362.293.656.656.656zM10.5 13.781a.656.656 0 00.656-.656v-.656a.656.656 0 10-1.312 0v.656c0 .362.293.656.656.656zM7.875 13.781a.656.656 0 00.656-.656v-.656a.656.656 0 10-1.312 0v.656c0 .362.294.656.656.656zM13.125 13.781a.656.656 0 00.656-.656v-.656a.656.656 0 10-1.312 0v.656c0 .362.293.656.656.656z" /><path d="M20.344 7.547h-3.938V3.28a.656.656 0 00-.656-.656h-.984V.656A.656.656 0 0014.109 0H6.891a.656.656 0 00-.657.656v1.969H5.25a.656.656 0 00-.656.656v4.266H.656A.656.656 0 000 8.203v12.14c0 .363.294.657.656.657h19.688a.656.656 0 00.656-.656V8.204a.656.656 0 00-.656-.657zM7.547 1.313h5.906v1.312H7.547V1.312zM1.313 8.858h3.28v10.829h-3.28V8.858zm4.593-4.921h9.188v15.75h-1.64v-3.282a.656.656 0 100-1.312H7.546a.656.656 0 100 1.312v3.282h-1.64V3.938zm2.953 15.75v-3.282h3.282v3.282H8.859zm10.829 0h-3.282V8.858h3.282v10.829z" /><path d="M18.047 12.14a.656.656 0 00.656-.656v-.656a.656.656 0 00-1.312 0v.656c0 .363.293.657.656.657zM18.047 15.094a.656.656 0 00.656-.656v-.657a.656.656 0 00-1.312 0v.656c0 .363.293.657.656.657zM18.047 18.047a.656.656 0 00.656-.656v-.657a.656.656 0 10-1.312 0v.657c0 .362.293.656.656.656zM2.953 10.172a.656.656 0 00-.656.656v.656a.656.656 0 001.312 0v-.656a.656.656 0 00-.656-.656zM2.953 13.125a.656.656 0 00-.656.656v.656a.656.656 0 101.312 0v-.656a.656.656 0 00-.656-.656zM2.953 16.078a.656.656 0 00-.656.656v.657a.656.656 0 101.312 0v-.657a.656.656 0 00-.656-.656z" /></symbol><symbol viewBox="0 0 20 18" id="choose-sans"><path d="M19.414 8.414s-1.748.002-1.836.005V6.656a.586.586 0 00-.586-.586H11.72V.797a.586.586 0 00-.586-.586H6.445a.586.586 0 00-.586.586V6.07H.586A.586.586 0 000 6.656v4.688c0 .323.262.586.586.586h5.273v5.273c0 .324.263.586.586.586h6.18c2.289 0 4.364-.922 5.694-2.53A7.27 7.27 0 0020 10.572V9a.586.586 0 00-.586-.586zM6.445 10.758H1.172V7.242h5.273a.586.586 0 00.586-.586V1.383h3.516v5.273c0 .324.262.586.586.586h5.273v1.312A7.313 7.313 0 0013.678 9.7 6.788 6.788 0 009.7 8.414h-.986A.586.586 0 008.128 9v.986c0 1.993.862 3.86 2.372 5.155-.042.488-.035.982.022 1.476h-3.49v-5.273a.586.586 0 00-.587-.586zm5.668.392c-.04.05-.08.1-.118.15l-.37-.37a.586.586 0 10-.828.828l.548.548c-.25.464-.446.95-.59 1.452A5.591 5.591 0 019.3 9.986v-.4h.4c1.08 0 2.135.312 3.032.888a7.45 7.45 0 00-.62.676zm6.715-.578c0 1.46-.488 2.822-1.412 3.94-1.107 1.338-2.852 2.105-4.79 2.105l2.515-2.515a.586.586 0 10-.829-.829l-2.665 2.665a6.166 6.166 0 011.377-4.051 6.17 6.17 0 014.818-2.301h.986v.986z" /></symbol><symbol viewBox="0 0 20 20" id="choose-tours"><path d="M19.828 3.534l-.976-.977a.586.586 0 00-.415-.172h-.747A2.543 2.543 0 0015.156 0H4.844A2.543 2.543 0 002.31 2.385h-.748a.585.585 0 00-.414.172l-.976.977A.587.587 0 000 3.95v2.933a.586.586 0 101.172 0v-2.69l.633-.634h.5v13.099c0 .43.278.795.664.926v1.44c0 .538.438.977.976.977h1.836a.978.978 0 00.977-.977v-1.389h6.484v1.389c0 .538.438.977.977.977h1.836a.978.978 0 00.976-.977v-1.44a.979.979 0 00.664-.926V3.558h.5l.633.634v2.69a.586.586 0 101.172 0V3.949a.587.587 0 00-.172-.415zm-3.305 12.927h-2.205l.234-.734 1.971-.342v1.076zm-9.61 0l-.456-1.43a.586.586 0 00-.459-.399l-2.521-.437v-2.36c2.476.434 10.575.433 13.046 0v2.36l-2.521.437a.586.586 0 00-.459.4l-.455 1.43H6.912zm-3.436 0v-1.076l1.971.342.234.734H3.477zM4.844 1.173h10.312a1.37 1.37 0 011.367 1.369v8.1c-2.066.46-10.98.46-13.046 0v-8.1a1.37 1.37 0 011.367-1.369zM4.14 18.827v-1.193h1.445v1.193H4.14zm10.273 0v-1.193h1.445v1.193h-1.445z" /></symbol><symbol viewBox="0 0 492 492" id="close"><path d="M300.188 246L484.14 62.04c5.06-5.064 7.852-11.82 7.86-19.024 0-7.208-2.792-13.972-7.86-19.028L468.02 7.872C462.952 2.796 456.196.016 448.984.016c-7.2 0-13.956 2.78-19.024 7.856L246.008 191.82 62.048 7.872C56.988 2.796 50.228.016 43.02.016c-7.2 0-13.96 2.78-19.02 7.856L7.872 23.988c-10.496 10.496-10.496 27.568 0 38.052L191.828 246 7.872 429.952C2.808 435.024.02 441.78.02 448.984c0 7.204 2.788 13.96 7.852 19.028l16.124 16.116c5.06 5.072 11.824 7.856 19.02 7.856 7.208 0 13.968-2.784 19.028-7.856l183.96-183.952 183.952 183.952c5.068 5.072 11.824 7.856 19.024 7.856h.008c7.204 0 13.96-2.784 19.028-7.856l16.12-16.116c5.06-5.064 7.852-11.824 7.852-19.028 0-7.204-2.792-13.96-7.852-19.028L300.188 246z" /></symbol><symbol viewBox="0 0 9 17" id="fb"><path d="M7.88 0H6.11C4.754 0 3.78.322 3.19.965c-.592.643-.887 1.59-.887 2.842V5a.57.57 0 01-.57.57H1.12a.57.57 0 00-.57.571V7.93c0 .315.255.571.57.571h.612a.57.57 0 01.57.57v7.36c0 .314.256.57.572.57H5.25a.57.57 0 00.57-.57V9.07a.57.57 0 01.571-.57h1.2a.648.648 0 00.631-.568l.19-1.794A.503.503 0 007.9 5.57H6.39a.57.57 0 01-.57-.57v-.894c0-.22.01-.39.03-.511a.994.994 0 01.14-.356.569.569 0 01.35-.242c.162-.045.377-.067.645-.067h.894a.57.57 0 00.57-.571V.57A.57.57 0 007.88 0z" /></symbol><symbol fill="none" viewBox="0 0 6 8" id="footer-placemark"><path d="M3 0c1.654 0 3 1.346 3 3 0 2.213-2.768 4.844-2.886 4.955a.167.167 0 01-.228 0C2.768 7.844 0 5.213 0 3c0-1.654 1.346-3 3-3zm0 4.667c.919 0 1.667-.748 1.667-1.667S3.919 1.333 3 1.333 1.333 2.081 1.333 3 2.081 4.667 3 4.667z" fill="#8D00EC" /></symbol><symbol viewBox="0 0 19 19" id="insta"><path d="M13.063 0H5.936A5.938 5.938 0 000 5.938v7.125A5.938 5.938 0 005.938 19h7.125A5.938 5.938 0 0019 13.062V5.939A5.938 5.938 0 0013.062 0zm4.156 13.063a4.16 4.16 0 01-4.157 4.156H5.939a4.16 4.16 0 01-4.157-4.157V5.939A4.16 4.16 0 015.938 1.78h7.125a4.16 4.16 0 014.156 4.157v7.125z" /><path d="M9.5 4.75a4.75 4.75 0 100 9.5 4.75 4.75 0 000-9.5zm0 7.719A2.973 2.973 0 016.531 9.5 2.972 2.972 0 019.5 6.531 2.972 2.972 0 0112.469 9.5 2.973 2.973 0 019.5 12.469zM14.606 5.027a.633.633 0 100-1.266.633.633 0 000 1.266z" /></symbol><symbol viewBox="0 0 612 612" id="mob-menu"><path d="M0 95.625v38.25h612v-38.25H0zm0 229.5h612v-38.25H0v38.25zm0 191.25h612v-38.25H0v38.25z" /></symbol><symbol fill="none" viewBox="0 0 13 13" id="phone"><path d="M11.974 8.56a7.432 7.432 0 01-2.332-.371c-.363-.126-.776-.03-1.015.214L7.151 9.518C5.458 8.614 4.374 7.531 3.483 5.85l1.084-1.44c.273-.274.371-.674.254-1.048a7.43 7.43 0 01-.374-2.336C4.447.46 3.987 0 3.421 0H1.026C.46 0 0 .46 0 1.026 0 7.628 5.372 13 11.974 13 12.54 13 13 12.54 13 11.974V9.586c0-.566-.46-1.027-1.026-1.027z" fill="#8F00EB" /></symbol><symbol fill="none" viewBox="0 0 18 18" id="rating-star"><path d="M17.958 6.93c-.276-.864-1.795-1.06-3.403-1.274-.882-.115-1.884-.246-2.186-.47-.304-.222-.729-1.137-1.104-1.945C10.582 1.77 9.934.384 9.03.38L9.015.38c-.896.015-1.55 1.385-2.244 2.84-.383.803-.818 1.714-1.121 1.935-.307.219-1.309.341-2.193.449C1.85 5.798.329 5.98.045 6.84-.24 7.7.87 8.754 2.048 9.87c.646.613 1.377 1.308 1.492 1.666.115.357-.08 1.35-.25 2.221-.312 1.59-.606 3.094.122 3.632.174.125.393.188.652.182.744-.012 1.814-.59 2.848-1.151.775-.424 1.653-.902 2.045-.906.378 0 1.26.491 2.037.924 1.058.587 2.152 1.195 2.897 1.183.232-.004.43-.063.593-.18.733-.528.453-2.032.159-3.627-.162-.874-.344-1.869-.23-2.226.12-.356.86-1.042 1.511-1.651 1.187-1.104 2.308-2.144 2.034-3.007z" fill="#FE7230" /></symbol><symbol fill="none" viewBox="0 0 13 13" id="star"><path d="M12.981 5.008a.38.38 0 00-.307-.259l-4.03-.585L6.842.512a.38.38 0 00-.684 0L4.356 4.164l-4.03.585a.38.38 0 00-.211.65L3.031 8.24l-.688 4.014a.38.38 0 00.552.402L6.5 10.762l3.604 1.895a.38.38 0 00.553-.402L9.97 8.241 12.885 5.4a.38.38 0 00.096-.39zM9.294 7.836a.38.38 0 00-.11.337l.592 3.45-3.099-1.629a.381.381 0 00-.354 0l-3.099 1.63.592-3.451a.38.38 0 00-.11-.337L1.2 5.392l3.465-.503a.38.38 0 00.287-.209L6.5 1.54l1.55 3.14a.38.38 0 00.286.209l3.465.503-2.507 2.444z" fill="#fff" /></symbol><symbol fill="none" viewBox="0 0 10 10" id="team-phone"><path d="M9.21 6.584A5.717 5.717 0 017.418 6.3a.769.769 0 00-.78.165L5.5 7.322C4.198 6.626 3.365 5.793 2.68 4.5l.834-1.108a.797.797 0 00.195-.806A5.715 5.715 0 013.421.79.79.79 0 002.631 0H.79A.79.79 0 000 .79C0 5.867 4.132 10 9.21 10a.79.79 0 00.79-.79V7.375a.79.79 0 00-.79-.79z" fill="#302949" /></symbol><symbol fill="none" viewBox="0 0 13 13" id="testimonials"><path d="M13 12.492c0 .201-.129.508-.508.508-.236 0-.423-.207-.428-.212a1.42 1.42 0 00-1.642-.275A4.64 4.64 0 018.324 13a4.67 4.67 0 01-3.78-1.88.508.508 0 11.814-.607 3.661 3.661 0 002.965 1.471c.589 0 1.142-.127 1.644-.38a2.422 2.422 0 012.017-.069V8.344v-.005a3.711 3.711 0 00-1.496-3.005.508.508 0 11.606-.816A4.73 4.73 0 0113 8.346v4.146zM4.676 9.395a4.64 4.64 0 01-2.098-.488 1.4 1.4 0 00-.628-.148c-.628 0-1.1.503-1.1.503A.508.508 0 010 8.887V4.74a4.663 4.663 0 011.363-3.346A4.662 4.662 0 014.697 0c1.268 0 2.454.492 3.34 1.386a4.672 4.672 0 011.357 3.357A4.658 4.658 0 017.995 8.04a4.697 4.697 0 01-3.314 1.355h-.005zM3.033 7.999c.502.252 1.055.38 1.643.38 2.021 0 3.683-1.635 3.703-3.645A3.663 3.663 0 007.315 2.1a3.655 3.655 0 00-2.618-1.085c-.986 0-1.913.388-2.612 1.094a3.655 3.655 0 00-1.07 2.624V7.93A2.412 2.412 0 013.033 8zm3.645-3.911a.635.635 0 100 1.27.635.635 0 000-1.27zm-2.006 0a.635.635 0 100 1.27.635.635 0 000-1.27zm-2.006 0a.635.635 0 100 1.27.635.635 0 000-1.27z" fill="#fff" /></symbol><symbol viewBox="0 0 492.004 492.004" id="up"><path d="M382.678 226.804L163.73 7.86C158.666 2.792 151.906 0 144.698 0s-13.968 2.792-19.032 7.86l-16.124 16.12c-10.492 10.504-10.492 27.576 0 38.064L293.398 245.9l-184.06 184.06c-5.064 5.068-7.86 11.824-7.86 19.028 0 7.212 2.796 13.968 7.86 19.04l16.124 16.116c5.068 5.068 11.824 7.86 19.032 7.86s13.968-2.792 19.032-7.86L382.678 265c5.076-5.084 7.864-11.872 7.848-19.088.016-7.244-2.772-14.028-7.848-19.108z" /></symbol><symbol fill="none" viewBox="0 0 130 130" id="work1"><path fill-rule="evenodd" clip-rule="evenodd" d="M65.047 11.132c-1.255-.008-2.578 6.098-3.868 14.6-.69 4.548-4.916 12.71-7.954 20.793.355-.029.706-.079 1.064-.09C61.675 46.207 65 51.733 65 51.663c0 .07 3.322-5.456 10.708-5.228 5.45.17 10.629 2.194 10.709 11.521.049 5.726-3.248 10.566-7.58 14.755-4.334 4.19-9.712 7.733-13.838 10.864-2.78-2.11-6.115-4.433-9.327-6.988.642 4.446-.752 7.267-1.828 11.887-1.772 7.606 11.204 9.888 11.204 9.888 8.434.585 14.49 3.011 19.955 6.045 5.464 3.035 10.338 6.681 16.396 9.71 6.058 3.029 11.508 5.15 15.446 4.696 3.937-.455 6.362-3.488 6.362-10.758 0-7.269-1.817-16.963-4.997-27.414-3.181-10.45-7.727-21.656-13.179-31.955S93.215 28.997 86.4 22.182c-6.816-6.815-14.084-11.004-21.353-11.05z" fill="#8F00EB" /><path fill-rule="evenodd" clip-rule="evenodd" d="M64.95 11.132c-7.269 0-14.537 4.235-21.352 11.05-6.815 6.816-13.178 16.205-18.63 26.504-5.453 10.299-9.999 21.505-13.18 31.955-3.18 10.45-4.996 20.145-4.996 27.414 0 7.27 2.424 10.303 6.362 10.758 3.938.454 9.387-1.667 15.445-4.696s10.933-6.675 16.397-9.71c5.464-3.034 11.52-5.46 19.955-6.045 0 0 .049.26.049-5.534v-9.253C62.413 81.654 53.5 74.973 51.162 72.71c-4.334-4.19-7.899-9.925-7.698-14.693.371-8.824 4.633-11.66 10.826-11.583C61.679 46.527 65 51.733 65 51.663c0 .029-2.594-7.223-1.419-8.627-.564-12.215-2.49.933-2.586-15.764-.048-8.6 3.956-16.14 3.956-16.14z" fill="#F4317E" /><path fill-rule="evenodd" clip-rule="evenodd" d="M64.946 11.132s.049 10.075.049 20.258v20.273s-.402-.233-1.095-.603c-1.662-.888-3.433-3.068-8.508-3.747-3.754-.501-11.898 1.364-11.815 10.643.028 3.074.199 3.466 1.453 6.516-.87-.414-9.139-3.53-18.439.53C19.538 68.083 12.95 76.97 12.95 76.97c2.108-5.998 6.056-19.27 15.754-35.178 9.698-15.907 22.81-31.062 36.243-30.66z" fill="url(#work1_paint0_linear)" /><defs></defs></symbol><linearGradient id="work1_paint0_linear" x1="57.755" y1="32.302" x2="30.488" y2="61.152" gradientUnits="userSpaceOnUse"><stop offset=".005" stop-color="#F4317E" /><stop offset=".993" stop-color="#F4317E" /></linearGradient><symbol fill="none" viewBox="0 0 116 116" id="work2"><path fill-rule="evenodd" clip-rule="evenodd" d="M57.999.953C26.406.953.798 26.57.798 58.163s25.608 57.201 57.201 57.201 57.21-25.608 57.21-57.2c0-31.594-25.617-57.21-57.21-57.21zm0 2.144c30.409 0 55.066 24.657 55.066 55.066 0 30.41-24.657 55.057-55.066 55.057-30.409 0-55.057-24.648-55.057-55.057 0-30.409 24.648-55.066 55.057-55.066z" fill="#6000AF" /><path fill-rule="evenodd" clip-rule="evenodd" d="M57.985 16.673c-5.193.023-10.913 22.803-10.912 34.974 4.505 3.528 4.297 3.49 10.644 8.023-6.347 4.534-6.14 4.495-10.644 8.024 0 12.17 5.72 34.951 10.912 34.974h.009c5.193-.023 10.954-22.804 10.954-34.974-4.505-3.528-4.212-3.492-10.552-8.024 6.34-4.532 6.047-4.495 10.552-8.023 0-12.17-5.761-34.951-10.954-34.974h-.009z" fill="url(#work2_paint0_linear)" /><path fill-rule="evenodd" clip-rule="evenodd" d="M47.062 49.862s-32.305 4.59-32.328 9.782v.009c.023 5.193 21.522 8.846 32.328 8.869 0 0 6-1.916 10.896-8.777H58l-.026-.034c.011-.015.015-.01.026-.025h-.042c-4.896-6.862-10.896-9.824-10.896-9.824z" fill="#6000AF" /><path fill-rule="evenodd" clip-rule="evenodd" d="M58 59.686c.011.016.014.01.025.025l-.025.034h.042c4.895 6.86 10.896 8.777 10.896 8.777 10.806-.023 32.304-3.677 32.327-8.87v-.008c-.023-5.193-32.327-9.782-32.327-9.782s-6 2.962-10.896 9.824H58z" fill="#8F00EB" /><defs></defs></symbol><linearGradient id="work2_paint0_linear" x1="47.073" y1="59.67" x2="68.948" y2="59.67" gradientUnits="userSpaceOnUse"><stop stop-color="#F4317E" /><stop offset=".993" stop-color="#FF7263" /></linearGradient><symbol fill="none" viewBox="0 0 113 111" id="work3"><path d="M47.533 19.968h61.506c1.716 0 3.12 1.291 3.12 2.902v84.536c0 1.596-1.388 2.902-3.12 2.902H47.533c-1.715 0-3.12-1.292-3.12-2.902V22.87c0-1.596 1.405-2.902 3.12-2.902z" fill="#6000AF" /><path d="M86.593 19.968h12.775v90.325H86.593V19.968z" fill="#8F00EB" /><path d="M56 27.92h3.645c1.68 0 3.05 1.477 3.05 3.302v19.72c0 1.825-1.37 3.303-3.05 3.303H56c-1.681 0-3.05-1.478-3.05-3.302V31.222c0-1.825 1.368-3.302 3.05-3.302z" fill="#6000AF" /><path d="M3.347 0h61.417c1.713 0 3.115 1.304 3.115 2.93V88.28c0 1.611-1.386 2.93-3.115 2.93H3.347c-1.713 0-3.115-1.304-3.115-2.93V2.93C.232 1.318 1.634 0 3.347 0z" fill="#F8467E" /><path d="M8.756 75.596c0-3.97 3.427-7.206 7.663-7.206 4.237 0 7.664 3.222 7.664 7.206 0 3.97-3.427 7.207-7.664 7.207-4.236 0-7.663-3.223-7.663-7.207z" fill="#8F00EB" /><path d="M8.756 66.002c0-3.97 3.427-7.207 7.663-7.207 4.237 0 7.664 3.223 7.664 7.207 0 3.97-3.427 7.206-7.664 7.206-4.236 0-7.663-3.222-7.663-7.206z" fill="#fff" /><path d="M11.801 8.029h3.64c1.679 0 3.045 1.492 3.045 3.334v19.91c0 1.843-1.366 3.334-3.045 3.334h-3.64c-1.678 0-3.045-1.491-3.045-3.333V11.363c0-1.842 1.367-3.334 3.045-3.334zM50.115 65.768h2.912c1.343 0 2.436.978 2.436 2.184v13.045c0 1.207-1.093 2.184-2.436 2.184h-2.912c-1.343 0-2.436-.977-2.436-2.184V67.952c0-1.206 1.093-2.184 2.436-2.184zM50.115 46.522h2.912c1.343 0 2.436.977 2.436 2.184v13.045c0 1.207-1.093 2.184-2.436 2.184h-2.912c-1.343 0-2.436-.977-2.436-2.184V48.706c0-1.207 1.093-2.184 2.436-2.184zM50.115 27.275h2.912c1.343 0 2.436.978 2.436 2.184v13.046c0 1.206-1.093 2.184-2.436 2.184h-2.912c-1.343 0-2.436-.977-2.436-2.184V29.459c0-1.206 1.093-2.184 2.436-2.184zM50.115 8.029h2.912c1.343 0 2.436.977 2.436 2.184v13.045c0 1.207-1.093 2.184-2.436 2.184h-2.912c-1.343 0-2.436-.977-2.436-2.184V10.213c0-1.207 1.093-2.184 2.436-2.184z" fill="#DE335F" /></symbol><symbol fill="none" viewBox="0 0 93 114" id="work4"><path fill-rule="evenodd" clip-rule="evenodd" d="M47.212.428h44.122c.751 0 1.36.62 1.36 1.384v110.373c0 .765-.609 1.384-1.36 1.384H47.212c-.75 0-1.36-.619-1.36-1.384V1.812c0-.764.61-1.384 1.36-1.384z" fill="url(#work4_paint0_linear)" /><path fill-rule="evenodd" clip-rule="evenodd" d="M46.792.428h44.962c.52 0 .94.428.94.957v17.224c0 .529-.42.957-.94.957H46.792a.948.948 0 01-.94-.957V1.385c0-.529.421-.957.94-.957z" fill="url(#work4_paint1_linear)" /><path fill-rule="evenodd" clip-rule="evenodd" d="M75.406 3.586a.779.779 0 00-.772.785v11.06c0 .433.346.785.772.785.425 0 .77-.352.77-.785V4.371a.779.779 0 00-.77-.785zm4.279 0a.779.779 0 00-.771.785v11.06c0 .433.346.785.77.785a.779.779 0 00.772-.785V4.371a.779.779 0 00-.771-.785zm4.28 0a.779.779 0 00-.772.785v11.06c0 .433.346.785.771.785a.779.779 0 00.771-.785V4.371a.779.779 0 00-.77-.785zm4.225 0a.779.779 0 00-.772.785v11.06c0 .433.346.785.772.785a.779.779 0 00.77-.785V4.371a.779.779 0 00-.77-.785zm-38.005.094a.773.773 0 00-.764.785v11.06c0 .433.339.785.764.785a.779.779 0 00.77-.785V4.465a.779.779 0 00-.77-.785zm4.24 0a.779.779 0 00-.77.785v11.06c0 .433.345.785.77.785a.779.779 0 00.772-.785V4.465a.78.78 0 00-.772-.785zm4.025 0a.78.78 0 00-.77.785v11.06c0 .433.345.785.77.785a.772.772 0 00.764-.785V4.465a.772.772 0 00-.764-.785zm4.172 0a.78.78 0 00-.771.785v11.06c0 .433.346.785.77.785a.773.773 0 00.764-.785V4.465a.773.773 0 00-.763-.785zm4.271 0a.772.772 0 00-.763.785v11.06c0 .433.338.785.763.785s.771-.352.771-.785V4.465a.779.779 0 00-.77-.785zm4.156 0a.779.779 0 00-.77.785v11.06c0 .433.345.785.77.785a.779.779 0 00.771-.785V4.465a.779.779 0 00-.77-.785z" fill="#fff" /><path fill-rule="evenodd" clip-rule="evenodd" d="M1.657 9.903h68.53c.751 0 1.36.62 1.36 1.384v91.422c0 .764-.609 1.384-1.36 1.384H1.657c-.75 0-1.36-.62-1.36-1.384V11.287c0-.765.61-1.384 1.36-1.384z" fill="#F4317E" /><path fill-rule="evenodd" clip-rule="evenodd" d="M13.67 56.995c0-12.512 9.963-22.654 22.253-22.654 12.29 0 22.253 10.142 22.253 22.654 0 12.511-9.963 22.653-22.253 22.653-12.29 0-22.253-10.142-22.253-22.653z" fill="#fff" /><path fill-rule="evenodd" clip-rule="evenodd" d="M18.113 57.001c0-9.992 7.956-18.092 17.771-18.092 9.815 0 17.771 8.1 17.771 18.092 0 9.992-7.956 18.092-17.77 18.092-9.816 0-17.772-8.1-17.772-18.092z" fill="#8F00EB" /><defs></defs></symbol><linearGradient id="work4_paint0_linear" x1="45.853" y1="56.999" x2="92.694" y2="56.999" gradientUnits="userSpaceOnUse"><stop offset=".005" stop-color="#6000AF" /><stop offset=".993" stop-color="#5B008F" /></linearGradient><linearGradient id="work4_paint1_linear" x1="45.852" y1="9.997" x2="92.694" y2="9.997" gradientUnits="userSpaceOnUse"><stop stop-color="#FF7263" /><stop offset=".993" stop-color="#F8467E" /></linearGradient><symbol fill="none" viewBox="0 0 119 119" id="work5"><path fill-rule="evenodd" clip-rule="evenodd" d="M55.86 5.752a6.206 6.206 0 00-6.209 6.209v6.742a6.206 6.206 0 006.209 6.209h6.41a6.206 6.206 0 006.208-6.209v-6.742a6.206 6.206 0 00-6.208-6.209h-6.41zm0 2.44h6.41a3.769 3.769 0 013.769 3.769v6.742a3.769 3.769 0 01-3.77 3.77h-6.41a3.77 3.77 0 01-3.769-3.77v-6.742a3.77 3.77 0 013.77-3.77z" fill="#6000AF" /><path fill-rule="evenodd" clip-rule="evenodd" d="M32.747 13.306h52.656c4.807 0 8.705 4.11 8.705 9.18v76.457c0 5.071-3.898 9.181-8.705 9.181 0 0-50.008-.911-52.613-.911-4.757 0-8.749-2.523-8.749-7.92V22.488c0-5.07 3.898-9.181 8.706-9.181z" fill="#8F00EB" /><path fill-rule="evenodd" clip-rule="evenodd" d="M24.036 69.514S37.319 49.84 57.648 54.013c20.329 4.174 36.455-11.402 36.455-15.055 0-3.167-.003 38.103 0 56.685 0 4.436.083 6.217-1.571 8.618-2.657 3.856-6.632 3.856-6.632 3.856s-49.435-.002-51.8 0c-2.118.002-9.968-.263-10.064-8.78-.053-4.745 0-29.823 0-29.823z" fill="#F8467E" /><path fill-rule="evenodd" clip-rule="evenodd" d="M40.176 26.83c-2.049 0-3.715 1.365-3.715 3.047 0 1.681 1.666 3.046 3.715 3.046h37.783c2.048 0 3.714-1.365 3.714-3.046 0-1.682-1.666-3.047-3.714-3.047H40.176zm0 12.614c-2.049 0-3.715 1.365-3.715 3.047 0 1.681 1.666 3.037 3.715 3.037h37.783c2.048 0 3.714-1.355 3.714-3.037s-1.666-3.047-3.714-3.047H40.176zm0 12.188c-2.049 0-3.715 1.356-3.715 3.037 0 1.682 1.666 3.047 3.715 3.047h37.783c2.048 0 3.714-1.365 3.714-3.047 0-1.681-1.666-3.037-3.714-3.037H40.176zm0 11.981c-2.049 0-3.715 1.365-3.715 3.046 0 1.682 1.666 3.047 3.715 3.047h37.783c2.048 0 3.714-1.365 3.714-3.047 0-1.681-1.666-3.046-3.714-3.046H40.176zm0 12.25c-2.049 0-3.715 1.366-3.715 3.047 0 1.682 1.666 3.047 3.715 3.047h37.783c2.048 0 3.714-1.365 3.714-3.047 0-1.681-1.666-3.046-3.714-3.046H40.176zm0 12.642c-2.049 0-3.715 1.365-3.715 3.046 0 1.682 1.666 3.047 3.715 3.047h37.783c2.048 0 3.714-1.365 3.714-3.047 0-1.681-1.666-3.046-3.714-3.046H40.176z" fill="#fff" /><path fill-rule="evenodd" clip-rule="evenodd" d="M38.402 105.113a1.94 1.94 0 011.94 1.94v2.514a1.94 1.94 0 11-3.88 0v-2.514a1.94 1.94 0 011.94-1.94zM79.73 105.113a1.94 1.94 0 011.94 1.94v2.514a1.94 1.94 0 11-3.88 0v-2.514a1.94 1.94 0 011.94-1.94z" fill="#6000AF" /></symbol><symbol fill="none" viewBox="0 0 120 120" id="work6"><path fill-rule="evenodd" clip-rule="evenodd" d="M61.72 25.296l51.69 20.515c1.09.433 1.606 1.709 1.153 2.85l-23.312 58.737c-.453 1.141-1.704 1.716-2.794 1.284l-51.69-20.516c-1.09-.433-1.607-1.709-1.154-2.85l23.313-58.737c.453-1.142 1.704-1.716 2.793-1.284z" fill="url(#work6_paint0_linear)" /><path fill-rule="evenodd" clip-rule="evenodd" d="M62.977 28.829l47.105 18.695c.993.395 1.532 1.384 1.204 2.21l-16.88 42.533c-.328.826-1.4 1.177-2.393.782L44.91 74.355c-.993-.394-1.533-1.384-1.204-2.21l16.88-42.532c.328-.827 1.4-1.177 2.392-.783z" fill="#fff" /><path fill-rule="evenodd" clip-rule="evenodd" d="M69.302 51.122c-5.87 6.641 2.418 18.302 5.492 19.776l-.007.019c.024.01.065.012.091.021.026.011.057.038.082.047a.466.466 0 00.007-.019c3.248 1.036 18.079-2.773 17.45-11.145-.656-8.728-10.592-4.985-11.422-4.294-.077-.657-5.695-11.191-11.693-4.405z" fill="url(#work6_paint1_linear)" /><path fill-rule="evenodd" clip-rule="evenodd" d="M7.918 11.177h69.28c1.46 0 2.644 1.24 2.644 2.77v78.722c0 1.53-1.184 2.77-2.645 2.77H7.918c-1.46 0-2.645-1.24-2.645-2.77V13.947c0-1.53 1.185-2.77 2.645-2.77z" fill="#F4317E" /><path fill-rule="evenodd" clip-rule="evenodd" d="M10.994 14.678h63.132c1.332 0 2.41.898 2.41 2.006v57.003c0 1.108-1.078 2.006-2.41 2.006H10.994c-1.33 0-2.41-.898-2.41-2.006V16.684c0-1.108 1.08-2.006 2.41-2.006z" fill="#fff" /><path fill-rule="evenodd" clip-rule="evenodd" d="M22.935 35.719c-3.745 10.388 11.211 20.08 15.448 20.374v.025c.033 0 .081-.016.116-.017.034.001.083.017.116.017v-.025c4.236-.294 19.657-11.52 15.082-20.924-4.77-9.804-14.555-.904-15.198.277-.392-.725-11.737-10.341-15.564.273z" fill="#F8467E" /><path fill-rule="evenodd" clip-rule="evenodd" d="M40.418 46.769c-2.502 6.939 7.489 13.414 10.32 13.61v.017c.021 0 .054-.01.077-.011.023 0 .055.01.077.01v-.016c2.83-.196 13.132-7.695 10.075-13.978-3.186-6.549-9.723-.604-10.152.185-.262-.484-7.84-6.907-10.397.183z" fill="url(#work6_paint2_linear)" /><defs></defs></symbol><linearGradient id="work6_paint0_linear" x1="47.27" y1="55.947" x2="102.907" y2="78.03" gradientUnits="userSpaceOnUse"><stop stop-color="#8F00EB" /><stop offset=".993" stop-color="#6000AF" /></linearGradient><linearGradient id="work6_paint1_linear" x1="67.251" y1="59.993" x2="92.436" y2="59.993" gradientUnits="userSpaceOnUse"><stop stop-color="#6000AF" /><stop offset=".993" stop-color="#8F00EB" /></linearGradient><linearGradient id="work6_paint2_linear" x1="40.02" y1="51.877" x2="61.528" y2="51.877" gradientUnits="userSpaceOnUse"><stop offset=".005" stop-color="#6000AF" /><stop offset=".993" stop-color="#5B008F" /></linearGradient><symbol viewBox="0 -71 511.999 511" id="yt"><path d="M255.98 370.492h-.136c-15.45-.105-152.028-1.351-190.723-11.816-27.043-7.27-48.39-28.594-55.68-55.64C-.684 265.022-.039 191.84.031 185.995c-.066-5.816-.719-79.605 9.38-117.93.01-.035.019-.074.03-.109 7.207-26.738 29.036-48.723 55.614-56.012.066-.02.136-.035.203-.054C103.516 1.836 240.363.605 255.844.5h.277c15.488.105 152.43 1.352 190.77 11.832 26.972 7.25 48.304 28.547 55.613 55.559 10.504 38.351 9.531 112.3 9.426 118.543.074 6.148.687 78.675-9.38 116.878-.007.04-.019.075-.027.11-7.293 27.047-28.636 48.371-55.71 55.648-.036.012-.075.02-.11.032-38.254 10.05-175.105 11.28-190.582 11.39h-.14zM48.074 78.324c-8.89 33.828-8.05 106.676-8.043 107.41v.528c-.265 20.203.668 78.71 8.047 106.422 3.578 13.27 14.106 23.78 27.457 27.37 28.55 7.723 139.79 10.153 180.445 10.438 40.762-.285 152.165-2.648 180.504-10.062 13.309-3.602 23.801-14.078 27.403-27.364 7.386-28.117 8.312-86.34 8.043-106.414 0-.21 0-.422.004-.632.367-20.446-.356-79.637-8.012-107.57a.624.624 0 01-.02-.083c-3.593-13.328-14.125-23.84-27.476-27.43-28.274-7.73-139.692-10.152-180.446-10.437-40.734.285-152.027 2.645-180.453 10.05-13.097 3.634-23.863 14.52-27.453 27.774zM483.211 298.22h.012zM205 266.492V104.496l140 81zm0 0" /></symbol></defs></svg>