<svg width="120" height="120" viewBox="0 0 120 120" fill="none" xmlns="http://www.w3.org/2000/svg">
<path fill-rule="evenodd" clip-rule="evenodd" d="M61.7194 25.2955L113.41 45.8111C114.5 46.2436 115.016 47.5197 114.563 48.6614L91.2509 107.398C90.798 108.539 89.5471 109.114 88.4571 108.682L36.7666 88.1659C35.6768 87.7331 35.1605 86.4571 35.6134 85.3156L58.9258 26.5792C59.3787 25.4375 60.6296 24.8627 61.7194 25.2955Z" fill="url(#paint0_linear)"/>
<path fill-rule="evenodd" clip-rule="evenodd" d="M62.9775 28.8288L110.082 47.5243C111.075 47.9187 111.614 48.9082 111.286 49.7347L94.4057 92.2666C94.0776 93.0931 93.0065 93.4438 92.0131 93.0495L44.9088 74.3539C43.9155 73.9599 43.3764 72.9701 43.7045 72.1435L60.5851 29.6117C60.9132 28.7851 61.9843 28.4347 62.9775 28.8288Z" fill="white"/>
<path fill-rule="evenodd" clip-rule="evenodd" d="M69.3017 51.1216C63.4311 57.7631 71.7202 69.424 74.7944 70.8981C74.7934 70.9002 74.7879 70.9144 74.7869 70.9165C74.8114 70.9264 74.8522 70.929 74.8784 70.9384C74.9036 70.9494 74.9352 70.9756 74.9597 70.9849C74.9609 70.9821 74.966 70.9693 74.9669 70.9665C78.2153 72.0018 93.0456 68.193 92.4168 59.8211C91.7614 51.0933 81.8247 54.8358 80.995 55.527C80.9177 54.8699 75.3 44.3356 69.3017 51.1216Z" fill="url(#paint1_linear)"/>
<path fill-rule="evenodd" clip-rule="evenodd" d="M7.91836 11.1768H77.1971C78.658 11.1768 79.8421 12.417 79.8421 13.947V92.669C79.8421 94.199 78.658 95.4393 77.1971 95.4393H7.91836C6.45762 95.4393 5.27344 94.199 5.27344 92.669V13.947C5.27344 12.417 6.45762 11.1768 7.91836 11.1768Z" fill="#F4317E"/>
<path fill-rule="evenodd" clip-rule="evenodd" d="M10.9943 14.6777H74.1264C75.4577 14.6777 76.5367 15.5758 76.5367 16.6837V73.6874C76.5367 74.7952 75.4577 75.6933 74.1264 75.6933H10.9943C9.6631 75.6933 8.58398 74.7952 8.58398 73.6874V16.6837C8.58398 15.5758 9.6631 14.6777 10.9943 14.6777Z" fill="white"/>
<path fill-rule="evenodd" clip-rule="evenodd" d="M22.9351 35.719C19.1899 46.1067 34.1463 55.7993 38.383 56.0931C38.3833 56.0962 38.383 56.1149 38.383 56.118C38.4159 56.1183 38.4644 56.1024 38.4989 56.1015C38.5333 56.1024 38.5817 56.1183 38.6146 56.118C38.6146 56.114 38.6146 56.0972 38.6146 56.0931C42.8513 55.7991 58.2725 44.5738 53.6972 35.1692C48.9274 25.3647 39.1419 34.2646 38.4989 35.4461C38.1073 34.7208 26.762 25.105 22.9351 35.719Z" fill="#F8467E"/>
<path fill-rule="evenodd" clip-rule="evenodd" d="M40.4178 46.7685C37.916 53.7077 47.907 60.1826 50.7373 60.3789C50.7373 60.3809 50.7373 60.3933 50.7373 60.3955C50.7592 60.3955 50.7916 60.3852 50.8146 60.3845C50.8376 60.3852 50.87 60.3955 50.8919 60.3955C50.8919 60.3929 50.8919 60.3816 50.8919 60.3789C53.7222 60.1826 64.0237 52.6838 60.9673 46.4013C57.7811 39.852 51.2442 45.7973 50.8146 46.5864C50.553 46.1021 42.9743 39.6785 40.4178 46.7685Z" fill="url(#paint2_linear)"/>
<defs>
<linearGradient id="paint0_linear" x1="47.2696" y1="55.9474" x2="102.907" y2="78.0296" gradientUnits="userSpaceOnUse">
<stop stop-color="#8F00EB"/>
<stop offset="0.992718" stop-color="#6000AF"/>
</linearGradient>
<linearGradient id="paint1_linear" x1="67.2509" y1="59.9927" x2="92.4363" y2="59.9927" gradientUnits="userSpaceOnUse">
<stop stop-color="#6000AF"/>
<stop offset="0.992718" stop-color="#8F00EB"/>
</linearGradient>
<linearGradient id="paint2_linear" x1="40.0196" y1="51.8774" x2="61.5282" y2="51.8774" gradientUnits="userSpaceOnUse">
<stop offset="0.00485437" stop-color="#6000AF"/>
<stop offset="0.992718" stop-color="#5B008F"/>
</linearGradient>
</defs>
</svg>
