<svg width="93" height="114" viewBox="0 0 93 114" fill="none" xmlns="http://www.w3.org/2000/svg">
<path fill-rule="evenodd" clip-rule="evenodd" d="M47.212 0.427856H91.3344C92.0854 0.427856 92.6941 1.04758 92.6941 1.81204V112.185C92.6941 112.95 92.0854 113.569 91.3344 113.569H47.212C46.4612 113.569 45.8525 112.95 45.8525 112.185V1.81204C45.8525 1.04758 46.4612 0.427856 47.212 0.427856Z" fill="url(#paint0_linear)"/>
<path fill-rule="evenodd" clip-rule="evenodd" d="M46.7924 0.427856H91.7541C92.2732 0.427856 92.6941 0.85628 92.6941 1.38478V18.6094C92.6941 19.1379 92.2732 19.5662 91.7541 19.5662H46.7924C46.2732 19.5662 45.8525 19.1379 45.8525 18.6094V1.38478C45.8525 0.85628 46.2732 0.427856 46.7924 0.427856Z" fill="url(#paint1_linear)"/>
<path fill-rule="evenodd" clip-rule="evenodd" d="M75.4058 3.58606C74.9804 3.58606 74.6345 3.93817 74.6345 4.37102V15.4311C74.6345 15.8639 74.9804 16.216 75.4058 16.216C75.8309 16.216 76.1766 15.8639 76.1766 15.4311V4.37102C76.1768 3.93817 75.8309 3.58606 75.4058 3.58606ZM79.6849 3.58606C79.2598 3.58606 78.9138 3.93817 78.9138 4.37102V15.4311C78.9138 15.8639 79.2598 16.216 79.6849 16.216C80.11 16.216 80.4559 15.8639 80.4559 15.4311V4.37102C80.4559 3.93817 80.11 3.58606 79.6849 3.58606ZM83.9642 3.58606C83.5391 3.58606 83.1932 3.93817 83.1932 4.37102V15.4311C83.1932 15.8639 83.5391 16.216 83.9642 16.216C84.3894 16.216 84.7353 15.8639 84.7353 15.4311V4.37102C84.7353 3.93817 84.3894 3.58606 83.9642 3.58606ZM88.1896 3.58606C87.7645 3.58606 87.4185 3.93817 87.4185 4.37102V15.4311C87.4185 15.8639 87.7645 16.216 88.1896 16.216C88.6147 16.216 88.9606 15.8639 88.9606 15.4311V4.37102C88.9606 3.93817 88.6147 3.58606 88.1896 3.58606ZM50.1848 3.68025C49.7597 3.68025 49.4214 4.03237 49.4214 4.46521V15.5253C49.4214 15.9581 49.7597 16.3102 50.1848 16.3102C50.6099 16.3102 50.9558 15.9581 50.9558 15.5253V4.46521C50.9558 4.03237 50.6099 3.68025 50.1848 3.68025ZM54.4254 3.68025C54.0003 3.68025 53.6544 4.03237 53.6544 4.46521V15.5253C53.6544 15.9581 54.0003 16.3102 54.4254 16.3102C54.8505 16.3102 55.1965 15.9581 55.1965 15.5253V4.46521C55.1965 4.03237 54.8505 3.68025 54.4254 3.68025ZM58.4504 3.68025C58.0253 3.68025 57.6793 4.03237 57.6793 4.46521V15.5253C57.6793 15.9581 58.0253 16.3102 58.4504 16.3102C58.8755 16.3102 59.2135 15.9581 59.2135 15.5253V4.46521C59.2138 4.03237 58.8755 3.68025 58.4504 3.68025ZM62.6217 3.68025C62.1966 3.68025 61.8506 4.03237 61.8506 4.46521V15.5253C61.8506 15.9581 62.1966 16.3102 62.6217 16.3102C63.0468 16.3102 63.3851 15.9581 63.3851 15.5253V4.46521C63.3851 4.03237 63.0468 3.68025 62.6217 3.68025ZM66.8934 3.68025C66.468 3.68025 66.13 4.03237 66.13 4.46521V15.5253C66.13 15.9581 66.468 16.3102 66.8934 16.3102C67.3185 16.3102 67.6642 15.9581 67.6642 15.5253V4.46521C67.6645 4.03237 67.3185 3.68025 66.8934 3.68025ZM71.0492 3.68025C70.624 3.68025 70.2781 4.03237 70.2781 4.46521V15.5253C70.2781 15.9581 70.624 16.3102 71.0492 16.3102C71.4743 16.3102 71.8202 15.9581 71.8202 15.5253V4.46521C71.8202 4.03237 71.4743 3.68025 71.0492 3.68025Z" fill="white"/>
<path fill-rule="evenodd" clip-rule="evenodd" d="M1.65705 9.90259H70.1874C70.9382 9.90259 71.5469 10.5223 71.5469 11.2868V102.709C71.5469 103.473 70.9382 104.093 70.1874 104.093H1.65705C0.906108 104.093 0.297363 103.473 0.297363 102.709V11.2868C0.297363 10.5223 0.906108 9.90259 1.65705 9.90259Z" fill="#F4317E"/>
<path fill-rule="evenodd" clip-rule="evenodd" d="M13.6704 56.9945C13.6704 44.4829 23.6333 34.3405 35.9229 34.3405C48.2128 34.3405 58.1757 44.4829 58.1757 56.9945C58.1757 69.5061 48.2128 79.6484 35.9229 79.6484C23.6333 79.6484 13.6704 69.5061 13.6704 56.9945Z" fill="white"/>
<path fill-rule="evenodd" clip-rule="evenodd" d="M18.1128 57.0011C18.1128 47.0092 26.0692 38.9092 35.8841 38.9092C45.6987 38.9092 53.6552 47.0092 53.6552 57.0011C53.6552 66.9931 45.6987 75.0931 35.8841 75.0931C26.0692 75.0931 18.1128 66.9931 18.1128 57.0011Z" fill="#8F00EB"/>
<defs>
<linearGradient id="paint0_linear" x1="45.8528" y1="56.9989" x2="92.6944" y2="56.9989" gradientUnits="userSpaceOnUse">
<stop offset="0.00485437" stop-color="#6000AF"/>
<stop offset="0.992718" stop-color="#5B008F"/>
</linearGradient>
<linearGradient id="paint1_linear" x1="45.8525" y1="9.99708" x2="92.6941" y2="9.99708" gradientUnits="userSpaceOnUse">
<stop stop-color="#FF7263"/>
<stop offset="0.992718" stop-color="#F8467E"/>
</linearGradient>
</defs>
</svg>
