<svg width="116" height="116" viewBox="0 0 116 116" fill="none" xmlns="http://www.w3.org/2000/svg">
<path fill-rule="evenodd" clip-rule="evenodd" d="M57.999 0.953491C26.4061 0.953491 0.797852 26.57 0.797852 58.1632C0.797852 89.7561 26.4061 115.364 57.999 115.364C89.5922 115.364 115.209 89.7561 115.209 58.1632C115.209 26.57 89.5922 0.953491 57.999 0.953491ZM57.999 3.09749C88.4079 3.09749 113.065 27.7543 113.065 58.1632C113.065 88.5721 88.4082 113.22 57.999 113.22C27.5901 113.22 2.94185 88.5721 2.94185 58.1632C2.94185 27.7543 27.5901 3.09749 57.999 3.09749Z" fill="#6000AF"/>
<path fill-rule="evenodd" clip-rule="evenodd" d="M57.9852 16.673C52.7924 16.696 47.0725 39.4764 47.0728 51.6468C51.5778 55.1753 51.3696 55.1362 57.7172 59.6702C51.3696 64.2042 51.5778 64.1651 47.0728 67.6936C47.0725 79.864 52.7924 102.645 57.9852 102.668C57.9879 102.667 57.9911 102.668 57.9937 102.668C63.1865 102.645 68.948 79.864 68.948 67.6936C64.4434 64.1656 64.7355 64.2024 58.3957 59.6702C64.7355 55.1381 64.4434 55.1748 68.948 51.6468C68.948 39.4764 63.1865 16.6958 57.9937 16.673C57.9911 16.673 57.9879 16.673 57.9852 16.673Z" fill="url(#paint0_linear)"/>
<path fill-rule="evenodd" clip-rule="evenodd" d="M47.062 49.8622C47.0617 49.8622 14.7574 54.4514 14.7344 59.6442C14.7344 59.6469 14.7344 59.6501 14.7344 59.6528C14.7572 64.8455 36.256 68.4986 47.062 68.5217C47.062 68.522 53.0623 66.6058 57.9578 59.7447C57.9704 59.7447 57.9868 59.7447 57.9996 59.7447C57.9865 59.7262 57.9876 59.7297 57.9744 59.7112C57.9854 59.6956 57.9886 59.7018 57.9996 59.686C57.9903 59.686 57.9669 59.6863 57.9578 59.686C53.0617 52.8239 47.062 49.8622 47.062 49.8622Z" fill="#6000AF"/>
<path fill-rule="evenodd" clip-rule="evenodd" d="M58 59.686C58.011 59.7018 58.0142 59.6956 58.0252 59.7112C58.0121 59.7297 58.0131 59.7262 58 59.7447C58.0129 59.7447 58.0292 59.7447 58.0418 59.7447C62.9374 66.6058 68.9376 68.5217 68.9376 68.5217C79.7436 68.4986 101.242 64.8455 101.265 59.6528V59.6442C101.242 54.4514 68.9376 49.8622 68.9376 49.8622C68.9376 49.8622 62.9379 52.8239 58.0418 59.686C58.0327 59.6863 58.0094 59.686 58 59.686Z" fill="#8F00EB"/>
<defs>
<linearGradient id="paint0_linear" x1="47.0728" y1="59.6702" x2="68.948" y2="59.6702" gradientUnits="userSpaceOnUse">
<stop stop-color="#F4317E"/>
<stop offset="0.992718" stop-color="#FF7263"/>
</linearGradient>
</defs>
</svg>
