<svg width="113" height="111" viewBox="0 0 113 111" fill="none" xmlns="http://www.w3.org/2000/svg">
<path d="M47.5333 19.9681H109.039C110.755 19.9681 112.159 21.2593 112.159 22.8697V107.406C112.159 109.002 110.771 110.308 109.039 110.308H47.5333C45.8175 110.308 44.4136 109.016 44.4136 107.406V22.8697C44.4136 21.2738 45.8175 19.9681 47.5333 19.9681Z" fill="#6000AF"/>
<path d="M86.5928 19.9681H99.3682V110.293H86.5928V19.9681Z" fill="#8F00EB"/>
<path d="M55.9996 27.92H59.6447C61.3258 27.92 62.6946 29.3975 62.6946 31.2219V50.9429C62.6946 52.7673 61.3258 54.2447 59.6447 54.2447H55.9996C54.3185 54.2447 52.9497 52.7673 52.9497 50.9429V31.2219C52.9497 29.3975 54.3185 27.92 55.9996 27.92Z" fill="#6000AF"/>
<path d="M3.34717 0H64.764C66.4774 0 67.8793 1.30364 67.8793 2.92952V88.2811C67.8793 89.8923 66.493 91.2106 64.764 91.2106H3.34717C1.63379 91.2106 0.231934 89.9069 0.231934 88.2811V2.92952C0.231934 1.31828 1.63379 0 3.34717 0Z" fill="#F8467E"/>
<path d="M8.75586 75.5963C8.75586 71.6268 12.1826 68.3896 16.4193 68.3896C20.656 68.3896 24.0828 71.6121 24.0828 75.5963C24.0828 79.5657 20.656 82.8029 16.4193 82.8029C12.1826 82.8029 8.75586 79.5804 8.75586 75.5963Z" fill="#8F00EB"/>
<path d="M8.75586 66.0018C8.75586 62.0324 12.1826 58.7953 16.4193 58.7953C20.656 58.7953 24.0828 62.0177 24.0828 66.0018C24.0828 69.9713 20.656 73.2084 16.4193 73.2084C12.1826 73.2084 8.75586 69.9859 8.75586 66.0018Z" fill="white"/>
<path d="M11.8013 8.02893H15.441C17.1197 8.02893 18.4865 9.52065 18.4865 11.3626V31.2738C18.4865 33.1157 17.1197 34.6074 15.441 34.6074H11.8013C10.1226 34.6074 8.75586 33.1157 8.75586 31.2738V11.3626C8.75586 9.52065 10.1226 8.02893 11.8013 8.02893Z" fill="#DE335F"/>
<path d="M50.1151 65.7682H53.0268C54.3698 65.7682 55.4631 66.7455 55.4631 67.9523V80.9974C55.4631 82.2042 54.3698 83.1815 53.0268 83.1815H50.1151C48.7721 83.1815 47.6787 82.2042 47.6787 80.9974V67.9523C47.6787 66.7455 48.7721 65.7682 50.1151 65.7682Z" fill="#DE335F"/>
<path d="M50.1151 46.522H53.0268C54.3698 46.522 55.4631 47.4993 55.4631 48.7061V61.7514C55.4631 62.9582 54.3698 63.9355 53.0268 63.9355H50.1151C48.7721 63.9355 47.6787 62.9582 47.6787 61.7514V48.7061C47.6787 47.4993 48.7721 46.522 50.1151 46.522Z" fill="#DE335F"/>
<path d="M50.1151 27.2753H53.0268C54.3698 27.2753 55.4631 28.2526 55.4631 29.4594V42.5047C55.4631 43.7115 54.3698 44.6888 53.0268 44.6888H50.1151C48.7721 44.6888 47.6787 43.7115 47.6787 42.5047V29.4594C47.6787 28.2526 48.7721 27.2753 50.1151 27.2753Z" fill="#DE335F"/>
<path d="M50.1151 8.02893H53.0268C54.3698 8.02893 55.4631 9.00626 55.4631 10.213V23.2583C55.4631 24.4651 54.3698 25.4424 53.0268 25.4424H50.1151C48.7721 25.4424 47.6787 24.4651 47.6787 23.2583V10.213C47.6787 9.00626 48.7721 8.02893 50.1151 8.02893Z" fill="#DE335F"/>
</svg>
