<svg width="119" height="119" viewBox="0 0 119 119" fill="none" xmlns="http://www.w3.org/2000/svg">
<path fill-rule="evenodd" clip-rule="evenodd" d="M55.8596 5.75244C52.4293 5.75244 49.6514 8.53045 49.6514 11.9608V18.7033C49.6514 22.1336 52.4293 24.9117 55.8596 24.9117H62.2697C65.7 24.9117 68.4779 22.1336 68.4779 18.7033V11.9608C68.4779 8.53045 65.7 5.75244 62.2697 5.75244H55.8596ZM55.8596 8.19142H62.2697C64.3517 8.19142 66.0389 9.87881 66.0389 11.9608V18.7033C66.0389 20.7852 64.3517 22.4726 62.2697 22.4726H55.8596C53.7778 22.4726 52.0904 20.7852 52.0904 18.7033V11.9608C52.0904 9.87881 53.7778 8.19142 55.8596 8.19142Z" fill="#6000AF"/>
<path fill-rule="evenodd" clip-rule="evenodd" d="M32.7466 13.306H85.4027C90.2105 13.306 94.1082 17.4164 94.1082 22.4869V98.9432C94.1082 104.014 90.2105 108.124 85.4027 108.124C85.4027 108.124 35.3948 107.213 32.7897 107.213C28.033 107.213 24.041 104.69 24.041 99.2936V22.4869C24.041 17.4164 27.9385 13.306 32.7466 13.306Z" fill="#8F00EB"/>
<path fill-rule="evenodd" clip-rule="evenodd" d="M24.036 69.5144C24.036 69.5144 37.319 49.8389 57.648 54.013C77.9768 58.187 94.1032 42.6111 94.1032 38.9578C94.1032 35.7912 94.1003 77.0609 94.1032 95.6434C94.1037 100.079 94.186 101.86 92.5319 104.261C89.8746 108.117 85.8998 108.117 85.8998 108.117C85.8998 108.117 36.4648 108.115 34.0998 108.117C31.9821 108.119 24.1317 107.854 24.036 99.3372C23.9825 94.592 24.036 69.5144 24.036 69.5144Z" fill="#F8467E"/>
<path fill-rule="evenodd" clip-rule="evenodd" d="M40.1757 26.8302C38.1274 26.8302 36.4614 28.1949 36.4614 29.8766C36.4614 31.5583 38.1274 32.923 40.1757 32.923H77.9589C80.0071 32.923 81.6731 31.5583 81.6731 29.8766C81.6731 28.1949 80.0071 26.8302 77.9589 26.8302H40.1757ZM40.1757 39.4444C38.1274 39.4444 36.4614 40.8091 36.4614 42.4908C36.4614 44.1725 38.1274 45.528 40.1757 45.528H77.9589C80.0071 45.528 81.6731 44.1725 81.6731 42.4908C81.6731 40.8091 80.0071 39.4444 77.9589 39.4444H40.1757ZM40.1757 51.6324C38.1274 51.6322 36.4614 52.9876 36.4614 54.6693C36.4614 56.3512 38.1274 57.7159 40.1757 57.7159H77.9589C80.0071 57.7159 81.6731 56.3512 81.6731 54.6693C81.6731 52.9876 80.0071 51.6324 77.9589 51.6324H40.1757ZM40.1757 63.6131C38.1274 63.6131 36.4614 64.9778 36.4614 66.6595C36.4614 68.3412 38.1274 69.7059 40.1757 69.7059H77.9589C80.0071 69.7059 81.6731 68.3412 81.6731 66.6595C81.6731 64.9778 80.0071 63.6131 77.9589 63.6131H40.1757ZM40.1757 75.8639C38.1274 75.8639 36.4614 77.2286 36.4614 78.9103C36.4614 80.592 38.1274 81.9567 40.1757 81.9567H77.9589C80.0071 81.9567 81.6731 80.592 81.6731 78.9103C81.6731 77.2286 80.0071 75.8639 77.9589 75.8639H40.1757ZM40.1757 88.5048C38.1274 88.5048 36.4614 89.8695 36.4614 91.5512C36.4614 93.2329 38.1274 94.5976 40.1757 94.5976H77.9589C80.0071 94.5976 81.6731 93.2329 81.6731 91.5512C81.6731 89.8695 80.0071 88.5048 77.9589 88.5048H40.1757Z" fill="white"/>
<path fill-rule="evenodd" clip-rule="evenodd" d="M38.4021 105.113C39.4738 105.113 40.3427 105.982 40.3427 107.053V109.567C40.3427 110.639 39.4738 111.508 38.4021 111.508C37.3304 111.508 36.4614 110.639 36.4614 109.567V107.053C36.4614 105.982 37.3304 105.113 38.4021 105.113Z" fill="#6000AF"/>
<path fill-rule="evenodd" clip-rule="evenodd" d="M79.7297 105.113C80.8014 105.113 81.6704 105.982 81.6704 107.053V109.567C81.6704 110.639 80.8014 111.508 79.7297 111.508C78.658 111.508 77.7891 110.639 77.7891 109.567V107.053C77.7891 105.982 78.658 105.113 79.7297 105.113Z" fill="#6000AF"/>
</svg>
