<svg width="130" height="130" viewBox="0 0 130 130" fill="none" xmlns="http://www.w3.org/2000/svg">
<path fill-rule="evenodd" clip-rule="evenodd" d="M65.047 11.1322C63.7925 11.1244 62.4691 17.23 61.1793 25.7329C60.4898 30.2798 56.2629 38.4414 53.2251 46.5248C53.5797 46.496 53.931 46.4463 54.2893 46.4354C61.6751 46.2066 64.9982 51.7326 64.9982 51.6627C64.9982 51.7326 68.3212 46.2066 75.707 46.4354C81.1572 46.6041 86.3358 48.6295 86.4157 57.9565C86.4648 63.6817 83.1683 68.5216 78.8351 72.7115C74.5019 76.9017 69.1244 80.4442 64.9982 83.5748C62.2185 81.4657 58.8832 79.1418 55.6707 76.5871C56.3126 81.0328 54.9187 83.8536 53.8426 88.474C52.071 96.0798 65.047 98.3621 65.047 98.3621C73.4809 98.9468 79.5379 101.373 85.002 104.407C90.4659 107.442 95.3402 111.088 101.398 114.117C107.456 117.146 112.906 119.267 116.844 118.813C120.781 118.358 123.206 115.325 123.206 108.055C123.206 100.786 121.389 91.0917 118.209 80.6415C115.028 70.1913 110.482 58.9846 105.03 48.686C99.5779 38.3874 93.2147 28.9975 86.3993 22.1822C79.5842 15.3669 72.3164 11.1775 65.047 11.1322Z" fill="#8F00EB"/>
<path fill-rule="evenodd" clip-rule="evenodd" d="M64.9506 11.1322C57.681 11.1322 50.4135 15.3669 43.5984 22.1822C36.783 28.9975 30.4197 38.3874 24.9676 48.686C19.5154 58.9846 14.9694 70.1913 11.7889 80.6415C8.6084 91.0917 6.79199 100.786 6.79199 108.055C6.79199 115.325 9.21613 118.358 13.1539 118.813C17.0916 119.267 22.5414 117.146 28.5995 114.117C34.6575 111.088 39.5317 107.442 44.9956 104.407C50.4598 101.373 56.5167 98.9468 64.9506 98.3621C64.9506 98.3621 64.9995 98.6218 64.9995 92.828C64.9995 87.0341 64.9995 89.514 64.9995 83.5748C62.4143 81.6537 53.5012 74.973 51.1625 72.7115C46.8294 68.5216 43.264 62.7865 43.4647 58.0176C43.8363 49.1945 48.0977 46.3582 54.2906 46.4354C61.6793 46.5274 64.9995 51.7326 64.9995 51.6627C64.9995 51.6916 62.406 44.4404 63.5812 43.0362C63.0175 30.8211 61.0901 43.9693 60.9952 27.2716C60.9466 18.6717 64.9506 11.1322 64.9506 11.1322Z" fill="#F4317E"/>
<path fill-rule="evenodd" clip-rule="evenodd" d="M64.946 11.1321C64.946 11.1321 64.9949 21.2069 64.9949 31.3901C64.9949 44.9333 64.9949 43.0607 64.9949 51.6626C64.9949 51.6626 64.5934 51.4304 63.9003 51.0599C62.2381 50.172 60.4667 47.9916 55.3918 47.3133C51.6376 46.8118 43.4942 48.6767 43.5774 57.9564C43.6049 61.0299 43.7755 61.4225 45.0303 64.472C44.1593 64.0583 35.891 60.9422 26.5911 65.0029C19.5384 68.0826 12.9492 76.9702 12.9492 76.9702C15.057 70.9723 19.0051 57.6998 28.703 41.7922C38.401 25.8848 51.5139 10.7303 64.946 11.1321Z" fill="url(#paint0_linear)"/>
<defs>
<linearGradient id="paint0_linear" x1="57.7554" y1="32.3019" x2="30.4879" y2="61.1521" gradientUnits="userSpaceOnUse">
<stop offset="0.00485437" stop-color="#F4317E"/>
<stop offset="0.992718" stop-color="#F4317E"/>
</linearGradient>
</defs>
</svg>
